<?xml version="1.0" encoding="us-ascii" standalone="no"?><svg xmlns="http://www.w3.org/2000/svg" xmlns:xlink="http://www.w3.org/1999/xlink" contentStyleType="text/css" height="2640.625px" preserveAspectRatio="none" style="width:4032px;height:2640px;background:#FFFFFF;" version="1.1" viewBox="0 0 4032 2640" width="4032.8125px" zoomAndPan="magnify"><defs/><g><!--cluster com--><g id="cluster_com"><path d="M25.7813,6.25 L71.0938,6.25 A5.8594,5.8594 0 0 1 75,10.1563 L85.9375,39.5477 L4017.9688,39.5477 A3.9063,3.9063 0 0 1 4021.875,43.454 L4021.875,2625.7813 A3.9063,3.9063 0 0 1 4017.9688,2629.6875 L25.7813,2629.6875 A3.9063,3.9063 0 0 1 21.875,2625.7813 L21.875,10.1563 A3.9063,3.9063 0 0 1 25.7813,6.25 " fill="none" style="stroke:#000000;stroke-width:2.34375;"/><line style="stroke:#000000;stroke-width:2.34375;" x1="21.875" x2="85.9375" y1="39.5477" y2="39.5477"/><text fill="#000000" font-family="sans-serif" font-size="20.3125" font-weight="bold" lengthAdjust="spacing" textLength="43.75" x="28.125" y="29.0131">com</text></g><!--cluster planner--><g id="cluster_planner"><path d="M38.2813,46.875 L122.6563,46.875 A5.8594,5.8594 0 0 1 126.5625,50.7813 L137.5,80.1727 L4005.4688,80.1727 A3.9063,3.9063 0 0 1 4009.375,84.079 L4009.375,2613.2813 A3.9063,3.9063 0 0 1 4005.4688,2617.1875 L38.2813,2617.1875 A3.9063,3.9063 0 0 1 34.375,2613.2813 L34.375,50.7813 A3.9063,3.9063 0 0 1 38.2813,46.875 " fill="none" style="stroke:#000000;stroke-width:2.34375;"/><line style="stroke:#000000;stroke-width:2.34375;" x1="34.375" x2="137.5" y1="80.1727" y2="80.1727"/><text fill="#000000" font-family="sans-serif" font-size="20.3125" font-weight="bold" lengthAdjust="spacing" textLength="82.8125" x="40.625" y="69.6381">planner</text></g><!--cluster domain--><g id="cluster_domain"><path d="M1166.4063,1153.125 L1247.6563,1153.125 A5.8594,5.8594 0 0 1 1251.5625,1157.0313 L1262.5,1186.4227 L2292.9688,1186.4227 A3.9063,3.9063 0 0 1 2296.875,1190.329 L2296.875,2600.7813 A3.9063,3.9063 0 0 1 2292.9688,2604.6875 L1166.4063,2604.6875 A3.9063,3.9063 0 0 1 1162.5,2600.7813 L1162.5,1157.0313 A3.9063,3.9063 0 0 1 1166.4063,1153.125 " fill="#FFFDE7" style="stroke:#000000;stroke-width:2.34375;"/><line style="stroke:#000000;stroke-width:2.34375;" x1="1162.5" x2="1262.5" y1="1186.4227" y2="1186.4227"/><text fill="#000000" font-family="sans-serif" font-size="20.3125" font-weight="bold" lengthAdjust="spacing" textLength="79.6875" x="1168.75" y="1175.8881">domain</text></g><!--cluster repository--><g id="cluster_repository"><path d="M897.6563,867.1875 L1007.0313,867.1875 A5.8594,5.8594 0 0 1 1010.9375,871.0938 L1021.875,900.4852 L2611.7188,900.4852 A3.9063,3.9063 0 0 1 2615.625,904.3915 L2615.625,1094.5313 A3.9063,3.9063 0 0 1 2611.7188,1098.4375 L897.6563,1098.4375 A3.9063,3.9063 0 0 1 893.75,1094.5313 L893.75,871.0938 A3.9063,3.9063 0 0 1 897.6563,867.1875 " fill="#E8F5E9" style="stroke:#000000;stroke-width:2.34375;"/><line style="stroke:#000000;stroke-width:2.34375;" x1="893.75" x2="1021.875" y1="900.4852" y2="900.4852"/><text fill="#000000" font-family="sans-serif" font-size="20.3125" font-weight="bold" lengthAdjust="spacing" textLength="107.8125" x="900" y="889.9506">repository</text></g><!--cluster service--><g id="cluster_service"><path d="M50.7813,504.6875 L127.3438,504.6875 A5.8594,5.8594 0 0 1 131.25,508.5938 L142.1875,537.9852 L3992.9688,537.9852 A3.9063,3.9063 0 0 1 3996.875,541.8915 L3996.875,808.5938 A3.9063,3.9063 0 0 1 3992.9688,812.5 L50.7813,812.5 A3.9063,3.9063 0 0 1 46.875,808.5938 L46.875,508.5938 A3.9063,3.9063 0 0 1 50.7813,504.6875 " fill="#E3F2FD" style="stroke:#000000;stroke-width:2.34375;"/><line style="stroke:#000000;stroke-width:2.34375;" x1="46.875" x2="142.1875" y1="537.9852" y2="537.9852"/><text fill="#000000" font-family="sans-serif" font-size="20.3125" font-weight="bold" lengthAdjust="spacing" textLength="75" x="53.125" y="527.4506">service</text></g><!--cluster ui--><g id="cluster_ui"><path d="M2174.2188,87.5 L2196.0938,87.5 A5.8594,5.8594 0 0 1 2200,91.4063 L2210.9375,120.7977 L2453.9063,120.7977 A3.9063,3.9063 0 0 1 2457.8125,124.704 L2457.8125,446.0938 A3.9063,3.9063 0 0 1 2453.9063,450 L2174.2188,450 A3.9063,3.9063 0 0 1 2170.3125,446.0938 L2170.3125,91.4063 A3.9063,3.9063 0 0 1 2174.2188,87.5 " fill="#FCE4EC" style="stroke:#000000;stroke-width:2.34375;"/><line style="stroke:#000000;stroke-width:2.34375;" x1="2170.3125" x2="2210.9375" y1="120.7977" y2="120.7977"/><text fill="#000000" font-family="sans-serif" font-size="20.3125" font-weight="bold" lengthAdjust="spacing" textLength="20.3125" x="2176.5625" y="110.2631">ui</text></g><!--class Developer--><g id="elem_Developer"><rect codeLine="14" fill="#F1F1F1" height="100.7629" id="Developer" rx="3.9063" ry="3.9063" style="stroke:#181818;stroke-width:0.78125;" width="171.875" x="1464.0625" y="2453.125"/><ellipse cx="1500.8594" cy="2478.125" fill="#ADD1B2" rx="17.1875" ry="17.1875" style="stroke:#181818;stroke-width:1.5625;"/><path d="M1504.7237,2487.7235 Q1503.8158,2488.1905 1502.8171,2488.4239 Q1501.8184,2488.6574 1500.7159,2488.6574 Q1496.799,2488.6574 1494.7368,2486.0764 Q1492.6746,2483.4953 1492.6746,2478.6186 Q1492.6746,2473.7289 1494.7368,2471.1479 Q1496.799,2468.5669 1500.7159,2468.5669 Q1501.8184,2468.5669 1502.83,2468.8004 Q1503.8417,2469.0338 1504.7237,2469.5007 L1504.7237,2473.7549 Q1503.7379,2472.847 1502.8106,2472.4255 Q1501.8832,2472.0039 1500.8975,2472.0039 Q1498.7964,2472.0039 1497.7264,2473.6706 Q1496.6563,2475.3372 1496.6563,2478.6186 Q1496.6563,2481.8871 1497.7264,2483.5537 Q1498.7964,2485.2203 1500.8975,2485.2203 Q1501.8832,2485.2203 1502.8106,2484.7988 Q1503.7379,2484.3773 1504.7237,2483.4694 Z " fill="#000000"/><text fill="#000000" font-family="sans-serif" font-size="18.75" lengthAdjust="spacing" textLength="92.1875" x="1525.7031" y="2485.2112">Developer</text><line style="stroke:#181818;stroke-width:0.78125;" x1="1465.625" x2="1634.375" y1="2503.125" y2="2503.125"/><text fill="#000000" font-family="sans-serif" font-size="21.875" lengthAdjust="spacing" textLength="153.125" x="1473.4375" y="2530.5237">initials : String</text><line style="stroke:#181818;stroke-width:0.78125;" x1="1465.625" x2="1634.375" y1="2541.3879" y2="2541.3879"/></g><!--class Project--><g id="elem_Project"><rect codeLine="18" fill="#F1F1F1" height="409.9182" id="Project" rx="3.9063" ry="3.9063" style="stroke:#181818;stroke-width:0.78125;" width="395.3125" x="1324.2188" y="1193.75"/><ellipse cx="1483.9844" cy="1218.75" fill="#ADD1B2" rx="17.1875" ry="17.1875" style="stroke:#181818;stroke-width:1.5625;"/><path d="M1487.8487,1228.3485 Q1486.9408,1228.8155 1485.9421,1229.0489 Q1484.9434,1229.2824 1483.8409,1229.2824 Q1479.924,1229.2824 1477.8618,1226.7014 Q1475.7996,1224.1203 1475.7996,1219.2436 Q1475.7996,1214.3539 1477.8618,1211.7729 Q1479.924,1209.1919 1483.8409,1209.1919 Q1484.9434,1209.1919 1485.955,1209.4254 Q1486.9667,1209.6588 1487.8487,1210.1257 L1487.8487,1214.3799 Q1486.8629,1213.472 1485.9356,1213.0505 Q1485.0082,1212.6289 1484.0225,1212.6289 Q1481.9214,1212.6289 1480.8514,1214.2956 Q1479.7813,1215.9622 1479.7813,1219.2436 Q1479.7813,1222.5121 1480.8514,1224.1787 Q1481.9214,1225.8453 1484.0225,1225.8453 Q1485.0082,1225.8453 1485.9356,1225.4238 Q1486.8629,1225.0023 1487.8487,1224.0944 Z " fill="#000000"/><text fill="#000000" font-family="sans-serif" font-size="18.75" lengthAdjust="spacing" textLength="62.5" x="1516.0156" y="1225.8362">Project</text><line style="stroke:#181818;stroke-width:0.78125;" x1="1325.7813" x2="1717.9688" y1="1243.75" y2="1243.75"/><text fill="#000000" font-family="sans-serif" font-size="21.875" lengthAdjust="spacing" textLength="103.125" x="1333.5938" y="1271.1487">id : String</text><text fill="#000000" font-family="sans-serif" font-size="21.875" lengthAdjust="spacing" textLength="142.1875" x="1333.5938" y="1296.9116">name : String</text><text fill="#000000" font-family="sans-serif" font-size="21.875" lengthAdjust="spacing" textLength="151.5625" x="1333.5938" y="1322.6746">startWeek : int</text><text fill="#000000" font-family="sans-serif" font-size="21.875" lengthAdjust="spacing" textLength="143.75" x="1333.5938" y="1348.4375">startYear : int</text><text fill="#000000" font-family="sans-serif" font-size="21.875" lengthAdjust="spacing" textLength="195.3125" x="1333.5938" y="1374.2004">deadlineWeek : int</text><text fill="#000000" font-family="sans-serif" font-size="21.875" lengthAdjust="spacing" textLength="187.5" x="1333.5938" y="1399.9634">deadlineYear : int</text><line style="stroke:#181818;stroke-width:1.5625;" x1="1325.7813" x2="1717.9688" y1="1410.8276" y2="1410.8276"/><text fill="#000000" font-family="sans-serif" font-size="21.875" lengthAdjust="spacing" textLength="303.125" x="1333.5938" y="1438.2263">setStart(week : int, year : int)</text><text fill="#000000" font-family="sans-serif" font-size="21.875" lengthAdjust="spacing" textLength="346.875" x="1333.5938" y="1463.9893">setDeadline(week : int, year : int)</text><text fill="#000000" font-family="sans-serif" font-size="21.875" lengthAdjust="spacing" textLength="209.375" x="1333.5938" y="1489.7522">hasStart() : boolean</text><text fill="#000000" font-family="sans-serif" font-size="21.875" lengthAdjust="spacing" textLength="253.125" x="1333.5938" y="1515.5151">hasDeadline() : boolean</text><text fill="#000000" font-family="sans-serif" font-size="21.875" lengthAdjust="spacing" textLength="301.5625" x="1333.5938" y="1541.2781">addActivity(activity : Activity)</text><text fill="#000000" font-family="sans-serif" font-size="21.875" lengthAdjust="spacing" textLength="364.0625" x="1333.5938" y="1567.041">getTotalBudgetedHours() : double</text><text fill="#000000" font-family="sans-serif" font-size="21.875" lengthAdjust="spacing" textLength="376.5625" x="1333.5938" y="1592.804">getTotalRegisteredHours() : double</text></g><!--class Activity--><g id="elem_Activity"><rect codeLine="35" fill="#F1F1F1" height="332.6294" id="Activity" rx="3.9063" ry="3.9063" style="stroke:#181818;stroke-width:0.78125;" width="495.3125" x="1274.2188" y="1685.9375"/><ellipse cx="1483.9844" cy="1710.9375" fill="#ADD1B2" rx="17.1875" ry="17.1875" style="stroke:#181818;stroke-width:1.5625;"/><path d="M1487.8487,1720.536 Q1486.9408,1721.003 1485.9421,1721.2364 Q1484.9434,1721.4699 1483.8409,1721.4699 Q1479.924,1721.4699 1477.8618,1718.8889 Q1475.7996,1716.3078 1475.7996,1711.4311 Q1475.7996,1706.5414 1477.8618,1703.9604 Q1479.924,1701.3794 1483.8409,1701.3794 Q1484.9434,1701.3794 1485.955,1701.6129 Q1486.9667,1701.8463 1487.8487,1702.3132 L1487.8487,1706.5674 Q1486.8629,1705.6595 1485.9356,1705.238 Q1485.0082,1704.8164 1484.0225,1704.8164 Q1481.9214,1704.8164 1480.8514,1706.4831 Q1479.7813,1708.1497 1479.7813,1711.4311 Q1479.7813,1714.6996 1480.8514,1716.3662 Q1481.9214,1718.0328 1484.0225,1718.0328 Q1485.0082,1718.0328 1485.9356,1717.6113 Q1486.8629,1717.1898 1487.8487,1716.2819 Z " fill="#000000"/><text fill="#000000" font-family="sans-serif" font-size="18.75" lengthAdjust="spacing" textLength="62.5" x="1516.0156" y="1718.0237">Activity</text><line style="stroke:#181818;stroke-width:0.78125;" x1="1275.7813" x2="1767.9688" y1="1735.9375" y2="1735.9375"/><text fill="#000000" font-family="sans-serif" font-size="21.875" lengthAdjust="spacing" textLength="142.1875" x="1283.5938" y="1763.3362">name : String</text><text fill="#000000" font-family="sans-serif" font-size="21.875" lengthAdjust="spacing" textLength="260.9375" x="1283.5938" y="1789.0991">budgetedHours : double</text><text fill="#000000" font-family="sans-serif" font-size="21.875" lengthAdjust="spacing" textLength="151.5625" x="1283.5938" y="1814.8621">startWeek : int</text><text fill="#000000" font-family="sans-serif" font-size="21.875" lengthAdjust="spacing" textLength="143.75" x="1283.5938" y="1840.625">startYear : int</text><text fill="#000000" font-family="sans-serif" font-size="21.875" lengthAdjust="spacing" textLength="143.75" x="1283.5938" y="1866.3879">endWeek : int</text><text fill="#000000" font-family="sans-serif" font-size="21.875" lengthAdjust="spacing" textLength="135.9375" x="1283.5938" y="1892.1509">endYear : int</text><line style="stroke:#181818;stroke-width:1.5625;" x1="1275.7813" x2="1767.9688" y1="1903.0151" y2="1903.0151"/><text fill="#000000" font-family="sans-serif" font-size="21.875" lengthAdjust="spacing" textLength="368.75" x="1283.5938" y="1930.4138">setBudgetedHours(hours : double)</text><text fill="#000000" font-family="sans-serif" font-size="21.875" lengthAdjust="spacing" textLength="396.875" x="1283.5938" y="1956.1768">addDeveloper(developer : Developer)</text><text fill="#000000" font-family="sans-serif" font-size="21.875" lengthAdjust="spacing" textLength="476.5625" x="1283.5938" y="1981.9397">addTimeRegistration(reg : TimeRegistration)</text><text fill="#000000" font-family="sans-serif" font-size="21.875" lengthAdjust="spacing" textLength="376.5625" x="1283.5938" y="2007.7026">getTotalRegisteredHours() : double</text></g><!--class TimeRegistration--><g id="elem_TimeRegistration"><rect codeLine="49" fill="#F1F1F1" height="178.0518" id="TimeRegistration" rx="3.9063" ry="3.9063" style="stroke:#181818;stroke-width:0.78125;" width="285.9375" x="1207.0313" y="2127.3438"/><ellipse cx="1268.4375" cy="2152.3438" fill="#ADD1B2" rx="17.1875" ry="17.1875" style="stroke:#181818;stroke-width:1.5625;"/><path d="M1272.3018,2161.9423 Q1271.3939,2162.4092 1270.3952,2162.6427 Q1269.3965,2162.8761 1268.2941,2162.8761 Q1264.3771,2162.8761 1262.3149,2160.2951 Q1260.2527,2157.7141 1260.2527,2152.8374 Q1260.2527,2147.9477 1262.3149,2145.3667 Q1264.3771,2142.7856 1268.2941,2142.7856 Q1269.3965,2142.7856 1270.4082,2143.0191 Q1271.4198,2143.2526 1272.3018,2143.7195 L1272.3018,2147.9736 Q1271.3161,2147.0657 1270.3887,2146.6442 Q1269.4614,2146.2227 1268.4756,2146.2227 Q1266.3745,2146.2227 1265.3045,2147.8893 Q1264.2345,2149.556 1264.2345,2152.8374 Q1264.2345,2156.1058 1265.3045,2157.7724 Q1266.3745,2159.4391 1268.4756,2159.4391 Q1269.4614,2159.4391 1270.3887,2159.0176 Q1271.3161,2158.596 1272.3018,2157.6881 Z " fill="#000000"/><text fill="#000000" font-family="sans-serif" font-size="18.75" lengthAdjust="spacing" textLength="151.5625" x="1298.75" y="2159.4299">TimeRegistration</text><line style="stroke:#181818;stroke-width:0.78125;" x1="1208.5938" x2="1491.4063" y1="2177.3438" y2="2177.3438"/><text fill="#000000" font-family="sans-serif" font-size="21.875" lengthAdjust="spacing" textLength="168.75" x="1216.4063" y="2204.7424">date : LocalDate</text><text fill="#000000" font-family="sans-serif" font-size="21.875" lengthAdjust="spacing" textLength="156.25" x="1216.4063" y="2230.5054">hours : double</text><line style="stroke:#181818;stroke-width:1.5625;" x1="1208.5938" x2="1491.4063" y1="2241.3696" y2="2241.3696"/><text fill="#000000" font-family="sans-serif" font-size="21.875" lengthAdjust="spacing" textLength="267.1875" x="1216.4063" y="2268.7683">setHours(hours : double)</text><text fill="#000000" font-family="sans-serif" font-size="21.875" lengthAdjust="spacing" textLength="264.0625" x="1216.4063" y="2294.5313">setDate(date : LocalDate)</text></g><!--class Absence--><g id="elem_Absence"><rect codeLine="57" fill="#F1F1F1" height="229.5776" id="Absence" rx="3.9063" ry="3.9063" style="stroke:#181818;stroke-width:0.78125;" width="504.6875" x="1778.9063" y="2101.5625"/><ellipse cx="1986.3281" cy="2126.5625" fill="#ADD1B2" rx="17.1875" ry="17.1875" style="stroke:#181818;stroke-width:1.5625;"/><path d="M1990.1924,2136.161 Q1989.2845,2136.628 1988.2858,2136.8614 Q1987.2871,2137.0949 1986.1847,2137.0949 Q1982.2678,2137.0949 1980.2055,2134.5139 Q1978.1433,2131.9328 1978.1433,2127.0561 Q1978.1433,2122.1664 1980.2055,2119.5854 Q1982.2678,2117.0044 1986.1847,2117.0044 Q1987.2871,2117.0044 1988.2988,2117.2379 Q1989.3105,2117.4713 1990.1924,2117.9382 L1990.1924,2122.1924 Q1989.2067,2121.2845 1988.2793,2120.863 Q1987.352,2120.4414 1986.3663,2120.4414 Q1984.2651,2120.4414 1983.1951,2122.1081 Q1982.1251,2123.7747 1982.1251,2127.0561 Q1982.1251,2130.3246 1983.1951,2131.9912 Q1984.2651,2133.6578 1986.3663,2133.6578 Q1987.352,2133.6578 1988.2793,2133.2363 Q1989.2067,2132.8148 1990.1924,2131.9069 Z " fill="#000000"/><text fill="#000000" font-family="sans-serif" font-size="18.75" lengthAdjust="spacing" textLength="76.5625" x="2018.3594" y="2133.6487">Absence</text><line style="stroke:#181818;stroke-width:0.78125;" x1="1780.4688" x2="2282.0313" y1="2151.5625" y2="2151.5625"/><text fill="#000000" font-family="sans-serif" font-size="21.875" lengthAdjust="spacing" textLength="115.625" x="1788.2813" y="2178.9612">type : Type</text><text fill="#000000" font-family="sans-serif" font-size="21.875" lengthAdjust="spacing" textLength="151.5625" x="1788.2813" y="2204.7241">startWeek : int</text><text fill="#000000" font-family="sans-serif" font-size="21.875" lengthAdjust="spacing" textLength="143.75" x="1788.2813" y="2230.4871">startYear : int</text><text fill="#000000" font-family="sans-serif" font-size="21.875" lengthAdjust="spacing" textLength="143.75" x="1788.2813" y="2256.25">endWeek : int</text><text fill="#000000" font-family="sans-serif" font-size="21.875" lengthAdjust="spacing" textLength="135.9375" x="1788.2813" y="2282.0129">endYear : int</text><line style="stroke:#181818;stroke-width:1.5625;" x1="1780.4688" x2="2282.0313" y1="2292.8772" y2="2292.8772"/><text fill="#000000" font-family="sans-serif" font-size="21.875" lengthAdjust="spacing" textLength="485.9375" x="1788.2813" y="2320.2759">isActiveInWeek(week : int, year : int) : boolean</text></g><!--class AbsenceType--><g id="elem_AbsenceType"><rect codeLine="67" fill="#F1F1F1" height="178.0518" id="AbsenceType" rx="3.9063" ry="3.9063" style="stroke:#181818;stroke-width:0.78125;" width="184.375" x="1939.0625" y="2414.0625"/><ellipse cx="1962.5" cy="2439.0625" fill="#EB937F" rx="17.1875" ry="17.1875" style="stroke:#181818;stroke-width:1.5625;"/><path d="M1968.1473,2449.2188 L1956.0852,2449.2188 L1956.0852,2429.8546 L1968.1473,2429.8546 L1968.1473,2433.2268 L1959.9113,2433.2268 L1959.9113,2437.4031 L1967.3691,2437.4031 L1967.3691,2440.7753 L1959.9113,2440.7753 L1959.9113,2445.8466 L1968.1473,2445.8466 Z " fill="#000000"/><text fill="#000000" font-family="sans-serif" font-size="18.75" lengthAdjust="spacing" textLength="134.375" x="1984.375" y="2446.1487">Absence::Type</text><line style="stroke:#181818;stroke-width:0.78125;" x1="1940.625" x2="2121.875" y1="2464.0625" y2="2464.0625"/><text fill="#000000" font-family="sans-serif" font-size="21.875" lengthAdjust="spacing" textLength="114.0625" x="1948.4375" y="2491.4612">VACATION</text><text fill="#000000" font-family="sans-serif" font-size="21.875" lengthAdjust="spacing" textLength="125" x="1948.4375" y="2517.2241">SICK_LEAVE</text><text fill="#000000" font-family="sans-serif" font-size="21.875" lengthAdjust="spacing" textLength="87.5" x="1948.4375" y="2542.9871">COURSE</text><text fill="#000000" font-family="sans-serif" font-size="21.875" lengthAdjust="spacing" textLength="73.4375" x="1948.4375" y="2568.75">OTHER</text><line style="stroke:#181818;stroke-width:0.78125;" x1="1940.625" x2="2121.875" y1="2579.6143" y2="2579.6143"/></g><!--class ProjectRepository--><g id="elem_ProjectRepository"><rect codeLine="90" fill="#F1F1F1" height="178.0518" id="ProjectRepository" rx="3.9063" ry="3.9063" style="stroke:#181818;stroke-width:0.78125;" width="442.1875" x="1555.4688" y="907.8125"/><ellipse cx="1691.0156" cy="932.8125" fill="#ADD1B2" rx="17.1875" ry="17.1875" style="stroke:#181818;stroke-width:1.5625;"/><path d="M1694.8799,942.411 Q1693.972,942.878 1692.9733,943.1114 Q1691.9746,943.3449 1690.8722,943.3449 Q1686.9553,943.3449 1684.893,940.7639 Q1682.8308,938.1828 1682.8308,933.3061 Q1682.8308,928.4164 1684.893,925.8354 Q1686.9553,923.2544 1690.8722,923.2544 Q1691.9746,923.2544 1692.9863,923.4879 Q1693.998,923.7213 1694.8799,924.1882 L1694.8799,928.4424 Q1693.8942,927.5345 1692.9668,927.113 Q1692.0395,926.6914 1691.0538,926.6914 Q1688.9526,926.6914 1687.8826,928.3581 Q1686.8126,930.0247 1686.8126,933.3061 Q1686.8126,936.5746 1687.8826,938.2412 Q1688.9526,939.9078 1691.0538,939.9078 Q1692.0395,939.9078 1692.9668,939.4863 Q1693.8942,939.0648 1694.8799,938.1569 Z " fill="#000000"/><text fill="#000000" font-family="sans-serif" font-size="18.75" lengthAdjust="spacing" textLength="157.8125" x="1723.0469" y="939.8987">ProjectRepository</text><line style="stroke:#181818;stroke-width:0.78125;" x1="1557.0313" x2="1996.0938" y1="957.8125" y2="957.8125"/><line style="stroke:#181818;stroke-width:0.78125;" x1="1557.0313" x2="1996.0938" y1="970.3125" y2="970.3125"/><text fill="#000000" font-family="sans-serif" font-size="21.875" lengthAdjust="spacing" textLength="287.5" x="1564.8438" y="997.7112">generateProjectId() : String</text><text fill="#000000" font-family="sans-serif" font-size="21.875" lengthAdjust="spacing" textLength="223.4375" x="1564.8438" y="1023.4741">add(project : Project)</text><text fill="#000000" font-family="sans-serif" font-size="21.875" lengthAdjust="spacing" textLength="423.4375" x="1564.8438" y="1049.2371">findById(id : String) : Optional&lt;Project&gt;</text><text fill="#000000" font-family="sans-serif" font-size="21.875" lengthAdjust="spacing" textLength="248.4375" x="1564.8438" y="1075">findAll() : List&lt;Project&gt;</text></g><!--class DeveloperRepository--><g id="elem_DeveloperRepository"><rect codeLine="97" fill="#F1F1F1" height="178.0518" id="DeveloperRepository" rx="3.9063" ry="3.9063" style="stroke:#181818;stroke-width:0.78125;" width="576.5625" x="2025.7813" y="907.8125"/><ellipse cx="2213.6719" cy="932.8125" fill="#ADD1B2" rx="17.1875" ry="17.1875" style="stroke:#181818;stroke-width:1.5625;"/><path d="M2217.5362,942.411 Q2216.6283,942.878 2215.6296,943.1114 Q2214.6309,943.3449 2213.5284,943.3449 Q2209.6115,943.3449 2207.5493,940.7639 Q2205.4871,938.1828 2205.4871,933.3061 Q2205.4871,928.4164 2207.5493,925.8354 Q2209.6115,923.2544 2213.5284,923.2544 Q2214.6309,923.2544 2215.6425,923.4879 Q2216.6542,923.7213 2217.5362,924.1882 L2217.5362,928.4424 Q2216.5504,927.5345 2215.6231,927.113 Q2214.6957,926.6914 2213.71,926.6914 Q2211.6089,926.6914 2210.5389,928.3581 Q2209.4688,930.0247 2209.4688,933.3061 Q2209.4688,936.5746 2210.5389,938.2412 Q2211.6089,939.9078 2213.71,939.9078 Q2214.6957,939.9078 2215.6231,939.4863 Q2216.5504,939.0648 2217.5362,938.1569 Z " fill="#000000"/><text fill="#000000" font-family="sans-serif" font-size="18.75" lengthAdjust="spacing" textLength="187.5" x="2245.7031" y="939.8987">DeveloperRepository</text><line style="stroke:#181818;stroke-width:0.78125;" x1="2027.3438" x2="2600.7813" y1="957.8125" y2="957.8125"/><line style="stroke:#181818;stroke-width:0.78125;" x1="2027.3438" x2="2600.7813" y1="970.3125" y2="970.3125"/><text fill="#000000" font-family="sans-serif" font-size="21.875" lengthAdjust="spacing" textLength="289.0625" x="2035.1563" y="997.7112">add(developer : Developer)</text><text fill="#000000" font-family="sans-serif" font-size="21.875" lengthAdjust="spacing" textLength="557.8125" x="2035.1563" y="1023.4741">findByInitials(initials : String) : Optional&lt;Developer&gt;</text><text fill="#000000" font-family="sans-serif" font-size="21.875" lengthAdjust="spacing" textLength="282.8125" x="2035.1563" y="1049.2371">findAll() : List&lt;Developer&gt;</text><text fill="#000000" font-family="sans-serif" font-size="21.875" lengthAdjust="spacing" textLength="337.5" x="2035.1563" y="1075">exists(initials : String) : boolean</text></g><!--class AbsenceRepository--><g id="elem_AbsenceRepository"><rect codeLine="104" fill="#F1F1F1" height="152.2888" id="AbsenceRepository" rx="3.9063" ry="3.9063" style="stroke:#181818;stroke-width:0.78125;" width="620.3125" x="907.0313" y="921.0938"/><ellipse cx="1124.6094" cy="946.0938" fill="#ADD1B2" rx="17.1875" ry="17.1875" style="stroke:#181818;stroke-width:1.5625;"/><path d="M1128.4737,955.6923 Q1127.5658,956.1592 1126.5671,956.3927 Q1125.5684,956.6261 1124.4659,956.6261 Q1120.549,956.6261 1118.4868,954.0451 Q1116.4246,951.4641 1116.4246,946.5874 Q1116.4246,941.6977 1118.4868,939.1167 Q1120.549,936.5356 1124.4659,936.5356 Q1125.5684,936.5356 1126.58,936.7691 Q1127.5917,937.0026 1128.4737,937.4695 L1128.4737,941.7236 Q1127.4879,940.8157 1126.5606,940.3942 Q1125.6332,939.9727 1124.6475,939.9727 Q1122.5464,939.9727 1121.4764,941.6393 Q1120.4063,943.306 1120.4063,946.5874 Q1120.4063,949.8558 1121.4764,951.5224 Q1122.5464,953.1891 1124.6475,953.1891 Q1125.6332,953.1891 1126.5606,952.7676 Q1127.4879,952.346 1128.4737,951.4381 Z " fill="#000000"/><text fill="#000000" font-family="sans-serif" font-size="18.75" lengthAdjust="spacing" textLength="171.875" x="1156.6406" y="953.1799">AbsenceRepository</text><line style="stroke:#181818;stroke-width:0.78125;" x1="908.5938" x2="1525.7813" y1="971.0938" y2="971.0938"/><line style="stroke:#181818;stroke-width:0.78125;" x1="908.5938" x2="1525.7813" y1="983.5938" y2="983.5938"/><text fill="#000000" font-family="sans-serif" font-size="21.875" lengthAdjust="spacing" textLength="253.125" x="916.4063" y="1010.9924">add(absence : Absence)</text><text fill="#000000" font-family="sans-serif" font-size="21.875" lengthAdjust="spacing" textLength="601.5625" x="916.4063" y="1036.7554">findByDeveloper(developer : Developer) : List&lt;Absence&gt;</text><text fill="#000000" font-family="sans-serif" font-size="21.875" lengthAdjust="spacing" textLength="265.625" x="916.4063" y="1062.5183">findAll() : List&lt;Absence&gt;</text></g><!--class ProjectService--><g id="elem_ProjectService"><rect codeLine="122" fill="#F1F1F1" height="255.3406" id="ProjectService" rx="3.9063" ry="3.9063" style="stroke:#181818;stroke-width:0.78125;" width="698.4375" x="2752.3438" y="545.3125"/><ellipse cx="3032.4219" cy="570.3125" fill="#ADD1B2" rx="17.1875" ry="17.1875" style="stroke:#181818;stroke-width:1.5625;"/><path d="M3036.2862,579.911 Q3035.3783,580.378 3034.3796,580.6114 Q3033.3809,580.8449 3032.2784,580.8449 Q3028.3615,580.8449 3026.2993,578.2639 Q3024.2371,575.6828 3024.2371,570.8061 Q3024.2371,565.9164 3026.2993,563.3354 Q3028.3615,560.7544 3032.2784,560.7544 Q3033.3809,560.7544 3034.3925,560.9879 Q3035.4042,561.2213 3036.2862,561.6882 L3036.2862,565.9424 Q3035.3004,565.0345 3034.3731,564.613 Q3033.4457,564.1914 3032.46,564.1914 Q3030.3589,564.1914 3029.2889,565.8581 Q3028.2188,567.5247 3028.2188,570.8061 Q3028.2188,574.0746 3029.2889,575.7412 Q3030.3589,577.4078 3032.46,577.4078 Q3033.4457,577.4078 3034.3731,576.9863 Q3035.3004,576.5648 3036.2862,575.6569 Z " fill="#000000"/><text fill="#000000" font-family="sans-serif" font-size="18.75" lengthAdjust="spacing" textLength="125" x="3064.4531" y="577.3987">ProjectService</text><line style="stroke:#181818;stroke-width:0.78125;" x1="2753.9063" x2="3449.2188" y1="595.3125" y2="595.3125"/><line style="stroke:#181818;stroke-width:0.78125;" x1="2753.9063" x2="3449.2188" y1="607.8125" y2="607.8125"/><text fill="#000000" font-family="sans-serif" font-size="21.875" lengthAdjust="spacing" textLength="389.0625" x="2761.7188" y="635.2112">createProject(name : String) : Project</text><text fill="#000000" font-family="sans-serif" font-size="21.875" lengthAdjust="spacing" textLength="318.75" x="2761.7188" y="660.9741">getProject(id : String) : Project</text><text fill="#000000" font-family="sans-serif" font-size="21.875" lengthAdjust="spacing" textLength="325" x="2761.7188" y="686.7371">getAllProjects() : List&lt;Project&gt;</text><text fill="#000000" font-family="sans-serif" font-size="21.875" lengthAdjust="spacing" textLength="493.75" x="2761.7188" y="712.5">setStart(projectId : String, week : int, year : int)</text><text fill="#000000" font-family="sans-serif" font-size="21.875" lengthAdjust="spacing" textLength="537.5" x="2761.7188" y="738.2629">setDeadline(projectId : String, week : int, year : int)</text><text fill="#000000" font-family="sans-serif" font-size="21.875" lengthAdjust="spacing" textLength="489.0625" x="2761.7188" y="764.0259">getProjectProgress(projectId : String) : double</text><text fill="#000000" font-family="sans-serif" font-size="21.875" lengthAdjust="spacing" textLength="679.6875" x="2761.7188" y="789.7888">assignProjectLeader(projectId : String, developerInitials : String)</text></g><!--class ActivityService--><g id="elem_ActivityService"><rect codeLine="132" fill="#F1F1F1" height="229.5776" id="ActivityService" rx="3.9063" ry="3.9063" style="stroke:#181818;stroke-width:0.78125;" width="967.1875" x="60.1563" y="557.8125"/><ellipse cx="474.6094" cy="582.8125" fill="#ADD1B2" rx="17.1875" ry="17.1875" style="stroke:#181818;stroke-width:1.5625;"/><path d="M478.4737,592.411 Q477.5658,592.878 476.5671,593.1114 Q475.5684,593.3449 474.4659,593.3449 Q470.549,593.3449 468.4868,590.7639 Q466.4246,588.1828 466.4246,583.3061 Q466.4246,578.4164 468.4868,575.8354 Q470.549,573.2544 474.4659,573.2544 Q475.5684,573.2544 476.58,573.4879 Q477.5917,573.7213 478.4737,574.1882 L478.4737,578.4424 Q477.4879,577.5345 476.5606,577.113 Q475.6332,576.6914 474.6475,576.6914 Q472.5464,576.6914 471.4764,578.3581 Q470.4063,580.0247 470.4063,583.3061 Q470.4063,586.5746 471.4764,588.2412 Q472.5464,589.9078 474.6475,589.9078 Q475.6332,589.9078 476.5606,589.4863 Q477.4879,589.0648 478.4737,588.1569 Z " fill="#000000"/><text fill="#000000" font-family="sans-serif" font-size="18.75" lengthAdjust="spacing" textLength="125" x="506.6406" y="589.8987">ActivityService</text><line style="stroke:#181818;stroke-width:0.78125;" x1="61.7188" x2="1025.7813" y1="607.8125" y2="607.8125"/><line style="stroke:#181818;stroke-width:0.78125;" x1="61.7188" x2="1025.7813" y1="620.3125" y2="620.3125"/><text fill="#000000" font-family="sans-serif" font-size="21.875" lengthAdjust="spacing" textLength="660.9375" x="69.5313" y="647.7112">createActivity(projectId : String, activityName : String) : Activity</text><text fill="#000000" font-family="sans-serif" font-size="21.875" lengthAdjust="spacing" textLength="601.5625" x="69.5313" y="673.4741">setActivityDetails(projectId : String, activityName : String,</text><text fill="#000000" font-family="sans-serif" font-size="21.875" lengthAdjust="spacing" textLength="893.75" x="94.5313" y="699.2371">budgetedHours : double, startWeek : int, startYear : int, endWeek : int, endYear : int)</text><text fill="#000000" font-family="sans-serif" font-size="21.875" lengthAdjust="spacing" textLength="948.4375" x="69.5313" y="725">addDeveloperToActivity(projectId : String, activityName : String, developerInitials : String)</text><text fill="#000000" font-family="sans-serif" font-size="21.875" lengthAdjust="spacing" textLength="668.75" x="69.5313" y="750.7629">getAvailableDevelopers(week : int, year : int) : List&lt;Developer&gt;</text><text fill="#000000" font-family="sans-serif" font-size="21.875" lengthAdjust="spacing" textLength="629.6875" x="69.5313" y="776.5259">getActivity(projectId : String, activityName : String) : Activity</text></g><!--class DeveloperService--><g id="elem_DeveloperService"><rect codeLine="140" fill="#F1F1F1" height="178.0518" id="DeveloperService" rx="3.9063" ry="3.9063" style="stroke:#181818;stroke-width:0.78125;" width="504.6875" x="3478.9063" y="583.5938"/><ellipse cx="3647.2656" cy="608.5938" fill="#ADD1B2" rx="17.1875" ry="17.1875" style="stroke:#181818;stroke-width:1.5625;"/><path d="M3651.1299,618.1923 Q3650.222,618.6592 3649.2233,618.8927 Q3648.2246,619.1261 3647.1222,619.1261 Q3643.2053,619.1261 3641.143,616.5451 Q3639.0808,613.9641 3639.0808,609.0874 Q3639.0808,604.1977 3641.143,601.6167 Q3643.2053,599.0356 3647.1222,599.0356 Q3648.2246,599.0356 3649.2363,599.2691 Q3650.248,599.5026 3651.1299,599.9695 L3651.1299,604.2236 Q3650.1442,603.3157 3649.2168,602.8942 Q3648.2895,602.4727 3647.3038,602.4727 Q3645.2026,602.4727 3644.1326,604.1393 Q3643.0626,605.806 3643.0626,609.0874 Q3643.0626,612.3558 3644.1326,614.0224 Q3645.2026,615.6891 3647.3038,615.6891 Q3648.2895,615.6891 3649.2168,615.2676 Q3650.1442,614.846 3651.1299,613.9381 Z " fill="#000000"/><text fill="#000000" font-family="sans-serif" font-size="18.75" lengthAdjust="spacing" textLength="154.6875" x="3679.2969" y="615.6799">DeveloperService</text><line style="stroke:#181818;stroke-width:0.78125;" x1="3480.4688" x2="3982.0313" y1="633.5938" y2="633.5938"/><line style="stroke:#181818;stroke-width:0.78125;" x1="3480.4688" x2="3982.0313" y1="646.0938" y2="646.0938"/><text fill="#000000" font-family="sans-serif" font-size="21.875" lengthAdjust="spacing" textLength="437.5" x="3488.2813" y="673.4924">getDeveloper(initials : String) : Developer</text><text fill="#000000" font-family="sans-serif" font-size="21.875" lengthAdjust="spacing" textLength="393.75" x="3488.2813" y="699.2554">getAllDevelopers() : List&lt;Developer&gt;</text><text fill="#000000" font-family="sans-serif" font-size="21.875" lengthAdjust="spacing" textLength="443.75" x="3488.2813" y="725.0183">developerExists(initials : String) : boolean</text><text fill="#000000" font-family="sans-serif" font-size="21.875" lengthAdjust="spacing" textLength="485.9375" x="3488.2813" y="750.7813">registerDeveloper(initials : String) : Developer</text></g><!--class TimeRegistrationService--><g id="elem_TimeRegistrationService"><rect codeLine="147" fill="#F1F1F1" height="203.8147" id="TimeRegistrationService" rx="3.9063" ry="3.9063" style="stroke:#181818;stroke-width:0.78125;" width="820.3125" x="1903.9063" y="571.0938"/><ellipse cx="2200.3906" cy="596.0938" fill="#ADD1B2" rx="17.1875" ry="17.1875" style="stroke:#181818;stroke-width:1.5625;"/><path d="M2204.2549,605.6923 Q2203.347,606.1592 2202.3483,606.3927 Q2201.3496,606.6261 2200.2472,606.6261 Q2196.3303,606.6261 2194.268,604.0451 Q2192.2058,601.4641 2192.2058,596.5874 Q2192.2058,591.6977 2194.268,589.1167 Q2196.3303,586.5356 2200.2472,586.5356 Q2201.3496,586.5356 2202.3613,586.7691 Q2203.373,587.0026 2204.2549,587.4695 L2204.2549,591.7236 Q2203.2692,590.8157 2202.3418,590.3942 Q2201.4145,589.9727 2200.4288,589.9727 Q2198.3276,589.9727 2197.2576,591.6393 Q2196.1876,593.306 2196.1876,596.5874 Q2196.1876,599.8558 2197.2576,601.5224 Q2198.3276,603.1891 2200.4288,603.1891 Q2201.4145,603.1891 2202.3418,602.7676 Q2203.2692,602.346 2204.2549,601.4381 Z " fill="#000000"/><text fill="#000000" font-family="sans-serif" font-size="18.75" lengthAdjust="spacing" textLength="214.0625" x="2232.4219" y="603.1799">TimeRegistrationService</text><line style="stroke:#181818;stroke-width:0.78125;" x1="1905.4688" x2="2722.6563" y1="621.0938" y2="621.0938"/><line style="stroke:#181818;stroke-width:0.78125;" x1="1905.4688" x2="2722.6563" y1="633.5938" y2="633.5938"/><text fill="#000000" font-family="sans-serif" font-size="21.875" lengthAdjust="spacing" textLength="600" x="1913.2813" y="660.9924">registerTime(developerInitials : String, projectId : String,</text><text fill="#000000" font-family="sans-serif" font-size="21.875" lengthAdjust="spacing" textLength="776.5625" x="1938.2813" y="686.7554">activityName : String, date : LocalDate, hours : double) : TimeRegistration</text><text fill="#000000" font-family="sans-serif" font-size="21.875" lengthAdjust="spacing" textLength="687.5" x="1913.2813" y="712.5183">editTimeRegistration(developerInitials : String, projectId : String,</text><text fill="#000000" font-family="sans-serif" font-size="21.875" lengthAdjust="spacing" textLength="620.3125" x="1938.2813" y="738.2813">activityName : String, date : LocalDate, newHours : double)</text><text fill="#000000" font-family="sans-serif" font-size="21.875" lengthAdjust="spacing" textLength="714.0625" x="1913.2813" y="764.0442">getTodayHours(developerInitials : String, date : LocalDate) : double</text></g><!--class AbsenceService--><g id="elem_AbsenceService"><rect codeLine="153" fill="#F1F1F1" height="178.0518" id="AbsenceService" rx="3.9063" ry="3.9063" style="stroke:#181818;stroke-width:0.78125;" width="818.75" x="1056.25" y="583.5938"/><ellipse cx="1389.4531" cy="608.5938" fill="#ADD1B2" rx="17.1875" ry="17.1875" style="stroke:#181818;stroke-width:1.5625;"/><path d="M1393.3174,618.1923 Q1392.4095,618.6592 1391.4108,618.8927 Q1390.4121,619.1261 1389.3097,619.1261 Q1385.3928,619.1261 1383.3305,616.5451 Q1381.2683,613.9641 1381.2683,609.0874 Q1381.2683,604.1977 1383.3305,601.6167 Q1385.3928,599.0356 1389.3097,599.0356 Q1390.4121,599.0356 1391.4238,599.2691 Q1392.4355,599.5026 1393.3174,599.9695 L1393.3174,604.2236 Q1392.3317,603.3157 1391.4043,602.8942 Q1390.477,602.4727 1389.4913,602.4727 Q1387.3901,602.4727 1386.3201,604.1393 Q1385.2501,605.806 1385.2501,609.0874 Q1385.2501,612.3558 1386.3201,614.0224 Q1387.3901,615.6891 1389.4913,615.6891 Q1390.477,615.6891 1391.4043,615.2676 Q1392.3317,614.846 1393.3174,613.9381 Z " fill="#000000"/><text fill="#000000" font-family="sans-serif" font-size="18.75" lengthAdjust="spacing" textLength="139.0625" x="1421.4844" y="615.6799">AbsenceService</text><line style="stroke:#181818;stroke-width:0.78125;" x1="1057.8125" x2="1873.4375" y1="633.5938" y2="633.5938"/><line style="stroke:#181818;stroke-width:0.78125;" x1="1057.8125" x2="1873.4375" y1="646.0938" y2="646.0938"/><text fill="#000000" font-family="sans-serif" font-size="21.875" lengthAdjust="spacing" textLength="671.875" x="1065.625" y="673.4924">registerAbsence(developerInitials : String, type : Absence.Type,</text><text fill="#000000" font-family="sans-serif" font-size="21.875" lengthAdjust="spacing" textLength="729.6875" x="1090.625" y="699.2554">startWeek : int, startYear : int, endWeek : int, endYear : int) : Absence</text><text fill="#000000" font-family="sans-serif" font-size="21.875" lengthAdjust="spacing" textLength="800" x="1065.625" y="725.0183">isDeveloperAbsent(developerInitials : String, week : int, year : int) : boolean</text><text fill="#000000" font-family="sans-serif" font-size="21.875" lengthAdjust="spacing" textLength="734.375" x="1065.625" y="750.7813">getAbsencesForDeveloper(developerInitials : String) : List&lt;Absence&gt;</text></g><!--class App--><g id="elem_App"><rect codeLine="183" fill="#F1F1F1" height="126.5259" id="App" rx="3.9063" ry="3.9063" style="stroke:#181818;stroke-width:0.78125;" width="232.8125" x="2197.6563" y="128.125"/><ellipse cx="2288.6719" cy="153.125" fill="#ADD1B2" rx="17.1875" ry="17.1875" style="stroke:#181818;stroke-width:1.5625;"/><path d="M2292.5362,162.7235 Q2291.6283,163.1905 2290.6296,163.4239 Q2289.6309,163.6574 2288.5284,163.6574 Q2284.6115,163.6574 2282.5493,161.0764 Q2280.4871,158.4953 2280.4871,153.6186 Q2280.4871,148.7289 2282.5493,146.1479 Q2284.6115,143.5669 2288.5284,143.5669 Q2289.6309,143.5669 2290.6425,143.8004 Q2291.6542,144.0338 2292.5362,144.5007 L2292.5362,148.7549 Q2291.5504,147.847 2290.6231,147.4255 Q2289.6957,147.0039 2288.71,147.0039 Q2286.6089,147.0039 2285.5389,148.6706 Q2284.4688,150.3372 2284.4688,153.6186 Q2284.4688,156.8871 2285.5389,158.5537 Q2286.6089,160.2203 2288.71,160.2203 Q2289.6957,160.2203 2290.6231,159.7988 Q2291.5504,159.3773 2292.5362,158.4694 Z " fill="#000000"/><text fill="#000000" font-family="sans-serif" font-size="18.75" lengthAdjust="spacing" textLength="37.5" x="2320.7031" y="160.2112">App</text><line style="stroke:#181818;stroke-width:0.78125;" x1="2199.2188" x2="2428.9063" y1="178.125" y2="178.125"/><line style="stroke:#181818;stroke-width:0.78125;" x1="2199.2188" x2="2428.9063" y1="190.625" y2="190.625"/><text fill="#000000" font-family="sans-serif" font-size="21.875" lengthAdjust="spacing" textLength="200" x="2207.0313" y="218.0237">start(stage : Stage)</text><text fill="#000000" font-family="sans-serif" font-size="21.875" lengthAdjust="spacing" textLength="214.0625" x="2207.0313" y="243.7866">main(args : String[])</text></g><!--class MainWindow--><g id="elem_MainWindow"><rect codeLine="188" fill="#F1F1F1" height="100.7629" id="MainWindow" rx="3.9063" ry="3.9063" style="stroke:#181818;stroke-width:0.78125;" width="260.9375" x="2183.5938" y="337.5"/><ellipse cx="2252.0313" cy="362.5" fill="#ADD1B2" rx="17.1875" ry="17.1875" style="stroke:#181818;stroke-width:1.5625;"/><path d="M2255.8955,372.0985 Q2254.9876,372.5655 2253.989,372.7989 Q2252.9903,373.0324 2251.8878,373.0324 Q2247.9709,373.0324 2245.9087,370.4514 Q2243.8464,367.8703 2243.8464,362.9936 Q2243.8464,358.1039 2245.9087,355.5229 Q2247.9709,352.9419 2251.8878,352.9419 Q2252.9903,352.9419 2254.0019,353.1754 Q2255.0136,353.4088 2255.8955,353.8757 L2255.8955,358.1299 Q2254.9098,357.222 2253.9825,356.8005 Q2253.0551,356.3789 2252.0694,356.3789 Q2249.9683,356.3789 2248.8982,358.0456 Q2247.8282,359.7122 2247.8282,362.9936 Q2247.8282,366.2621 2248.8982,367.9287 Q2249.9683,369.5953 2252.0694,369.5953 Q2253.0551,369.5953 2253.9825,369.1738 Q2254.9098,368.7523 2255.8955,367.8444 Z " fill="#000000"/><text fill="#000000" font-family="sans-serif" font-size="18.75" lengthAdjust="spacing" textLength="110.9375" x="2283.9063" y="369.5862">MainWindow</text><line style="stroke:#181818;stroke-width:0.78125;" x1="2185.1563" x2="2442.9688" y1="387.5" y2="387.5"/><line style="stroke:#181818;stroke-width:0.78125;" x1="2185.1563" x2="2442.9688" y1="400" y2="400"/><text fill="#000000" font-family="sans-serif" font-size="21.875" lengthAdjust="spacing" textLength="242.1875" x="2192.9688" y="427.3987">getRoot() : BorderPane</text></g><polygon fill="#181818" points="1521.875,1603.6301,1515.625,1613.0051,1521.875,1622.3801,1528.125,1613.0051,1521.875,1603.6301" style="stroke:#181818;stroke-width:1.5625;"/><polygon fill="#181818" points="1521.875,1685.8734,1528.125,1671.8109,1521.875,1678.0609,1515.625,1671.8109,1521.875,1685.8734" style="stroke:#181818;stroke-width:1.5625;"/><path d="M1521.875,1622.3801 C1521.875,1649.912 1521.875,1649.7561 1521.875,1676.4984 " fill="none" style="stroke:#181818;stroke-width:1.5625;"/><text fill="#000000" font-family="sans-serif" font-size="20.3125" lengthAdjust="spacing" textLength="89.0625" x="1523.4375" y="1652.4506">activities</text><ellipse cx="1422.6563" cy="1673.0774" fill="#000000" rx="3.9063" ry="3.9063" style="stroke:#000000;stroke-width:0.0;"/><text fill="#000000" font-family="sans-serif" font-size="20.3125" lengthAdjust="spacing" textLength="87.5" x="1432.8125" y="1680.5115">{ordered}</text><text fill="#000000" font-family="sans-serif" font-size="20.3125" lengthAdjust="spacing" textLength="12.5" x="1507.8125" y="1624.8307">1</text><polygon fill="#181818" points="1463.9442,2487.2719,1451.6021,2478.0801,1456.3232,2485.5524,1448.8509,2490.2736,1463.9442,2487.2719" style="stroke:#181818;stroke-width:1.5625;"/><path d="M1324.1901,1587.1936 C1299.7778,1618.1351 1277.5995,1651.4439 1260.9375,1685.9375 C1135.5148,1945.5878 1039.9878,2087.3109 1193.75,2331.25 C1252.6953,2424.765 1369.5813,2465.9816 1454.7991,2485.2085 " fill="none" style="stroke:#181818;stroke-width:1.5625;"/><text fill="#000000" font-family="sans-serif" font-size="20.3125" lengthAdjust="spacing" textLength="132.8125" x="1118.75" y="2068.0756">projectLeader</text><text fill="#000000" font-family="sans-serif" font-size="20.3125" lengthAdjust="spacing" textLength="37.5" x="1424.8817" y="2481.9099">0..1</text><text fill="#000000" font-family="sans-serif" font-size="20.3125" lengthAdjust="spacing" textLength="34.375" x="1288.2526" y="1581.8317">0..*</text><polygon fill="#181818" points="1389.8378,2019.2745,1379.9039,2024.5915,1380.9912,2035.8063,1390.9251,2030.4892,1389.8378,2019.2745" style="stroke:#181818;stroke-width:1.5625;"/><polygon fill="#181818" points="1355.6786,2127.1495,1363.8895,2114.1342,1356.8043,2119.4185,1351.52,2112.3332,1355.6786,2127.1495" style="stroke:#181818;stroke-width:1.5625;"/><path d="M1380.9912,2035.8063 C1376.1164,2044.916 1380.4926,2037.6089 1376.5625,2046.875 C1365.9567,2071.8805 1360.894,2091.3294 1357.0294,2117.8723 " fill="none" style="stroke:#181818;stroke-width:1.5625;"/><text fill="#000000" font-family="sans-serif" font-size="20.3125" lengthAdjust="spacing" textLength="173.4375" x="1378.125" y="2068.0756">timeRegistrations</text><ellipse cx="1256.4599" cy="2114.3535" fill="#000000" rx="3.9063" ry="3.9063" style="stroke:#000000;stroke-width:0.0;"/><text fill="#000000" font-family="sans-serif" font-size="20.3125" lengthAdjust="spacing" textLength="87.5" x="1266.6161" y="2121.7876">{ordered}</text><text fill="#000000" font-family="sans-serif" font-size="20.3125" lengthAdjust="spacing" textLength="12.5" x="1375.7753" y="2040.475">1</text><polygon fill="#181818" points="1553.1009,2453.0103,1560.1334,2439.3223,1553.5411,2445.2102,1547.6532,2438.6179,1553.1009,2453.0103" style="stroke:#181818;stroke-width:1.5625;"/><path d="M1550.3916,2018.9621 C1551.4628,2028.3876 1552.3902,2037.7413 1553.125,2046.875 C1564.994,2194.4121 1558.3287,2360.3837 1553.6292,2443.6502 " fill="none" style="stroke:#181818;stroke-width:1.5625;"/><text fill="#000000" font-family="sans-serif" font-size="20.3125" lengthAdjust="spacing" textLength="196.875" x="1560.9375" y="2224.3256">assignedDevelopers</text><text fill="#000000" font-family="sans-serif" font-size="20.3125" lengthAdjust="spacing" textLength="34.375" x="1517.1634" y="2447.6483">0..*</text><text fill="#000000" font-family="sans-serif" font-size="20.3125" lengthAdjust="spacing" textLength="34.375" x="1514.4541" y="2040.1627">0..*</text><polygon fill="#181818" points="1500.7553,2453.1098,1495.5889,2438.6141,1495.3697,2447.4502,1486.5336,2447.231,1500.7553,2453.1098" style="stroke:#181818;stroke-width:1.5625;"/><path d="M1393.9617,2305.7977 C1408.5738,2332.3462 1425.7454,2361.0414 1443.75,2385.9375 C1460.6842,2409.3536 1475.3484,2426.4104 1494.2926,2446.3183 " fill="none" style="stroke:#181818;stroke-width:1.5625;"/><text fill="#000000" font-family="sans-serif" font-size="20.3125" lengthAdjust="spacing" textLength="95.3125" x="1445.3125" y="2380.5756">developer</text><text fill="#000000" font-family="sans-serif" font-size="20.3125" lengthAdjust="spacing" textLength="12.5" x="1486.6928" y="2447.7478">1</text><text fill="#000000" font-family="sans-serif" font-size="20.3125" lengthAdjust="spacing" textLength="34.375" x="1358.0242" y="2326.9983">0..*</text><polygon fill="#181818" points="1632.7705,2452.7871,1648.0589,2451.0322,1639.5012,2448.8207,1641.7128,2440.263,1632.7705,2452.7871" style="stroke:#181818;stroke-width:1.5625;"/><path d="M1838.9725,2331.2751 C1767.2364,2373.5482 1697.5978,2414.5852 1640.8474,2448.0274 " fill="none" style="stroke:#181818;stroke-width:1.5625;"/><text fill="#000000" font-family="sans-serif" font-size="20.3125" lengthAdjust="spacing" textLength="95.3125" x="1792.1875" y="2380.5756">developer</text><text fill="#000000" font-family="sans-serif" font-size="20.3125" lengthAdjust="spacing" textLength="12.5" x="1618.708" y="2447.4251">1</text><text fill="#000000" font-family="sans-serif" font-size="20.3125" lengthAdjust="spacing" textLength="34.375" x="1803.035" y="2352.4757">0..*</text><polygon fill="#181818" points="2031.25,2413.7693,2037.5,2399.7068,2031.25,2405.9568,2025,2399.7068,2031.25,2413.7693" style="stroke:#181818;stroke-width:1.5625;"/><path d="M2031.25,2331.2751 C2031.25,2358.7372 2031.25,2378.3113 2031.25,2404.3943 " fill="none" style="stroke:#181818;stroke-width:1.5625;"/><text fill="#000000" font-family="sans-serif" font-size="20.3125" lengthAdjust="spacing" textLength="42.1875" x="2032.8125" y="2380.5756">type</text><polygon fill="none" points="1720.355,1086.3696,1710.0397,1090.9025,1710.2565,1102.1678,1720.5718,1097.6348,1720.355,1086.3696" style="stroke:#181818;stroke-width:1.5625;"/><polygon fill="#181818" points="1651.7314,1193.7254,1664.5713,1185.2429,1655.9391,1187.1428,1654.0392,1178.5106,1651.7314,1193.7254" style="stroke:#181818;stroke-width:1.5625;"/><path d="M1710.2565,1102.1678 C1689.8212,1134.1371 1680.935,1148.0387 1656.7806,1185.8263 " fill="none" style="stroke:#181818;stroke-width:1.5625;"/><text fill="#000000" font-family="sans-serif" font-size="20.3125" lengthAdjust="spacing" textLength="79.6875" x="1701.5625" y="1135.2631">projects</text><ellipse cx="1552.5127" cy="1180.9294" fill="#000000" rx="3.9063" ry="3.9063" style="stroke:#000000;stroke-width:0.0;"/><text fill="#000000" font-family="sans-serif" font-size="20.3125" lengthAdjust="spacing" textLength="87.5" x="1562.6689" y="1188.3635">{ordered}</text><text fill="#000000" font-family="sans-serif" font-size="20.3125" lengthAdjust="spacing" textLength="12.5" x="1706.2925" y="1107.5701">1</text><polygon fill="none" points="2314.0625,1086.2723,2307.8125,1095.6473,2314.0625,1105.0223,2320.3125,1095.6473,2314.0625,1086.2723" style="stroke:#181818;stroke-width:1.5625;"/><polygon fill="#181818" points="1636.1026,2480.1064,1651.2481,2482.8323,1643.6909,2478.2482,1648.275,2470.691,1636.1026,2480.1064" style="stroke:#181818;stroke-width:1.5625;"/><path d="M2314.0625,1105.0223 C2314.0625,1185.7551 2314.0625,1290.0024 2314.0625,1396.875 C2314.0625,1396.875 2314.0625,1396.875 2314.0625,2217.9688 C2314.0625,2268.7926 2332.3205,2293.3685 2298.4375,2331.25 C2232.525,2404.9408 2179.4588,2365.0979 2082.8125,2385.9375 C2013.1691,2400.9545 1994.784,2399.7131 1925,2414.0625 C1825.466,2434.5293 1721.0324,2459.3091 1645.2086,2477.8766 " fill="none" style="stroke:#181818;stroke-width:1.5625;"/><text fill="#000000" font-family="sans-serif" font-size="20.3125" lengthAdjust="spacing" textLength="106.25" x="2315.625" y="1860.2631">developers</text><ellipse cx="1646.2588" cy="2467.3104" fill="#000000" rx="3.9063" ry="3.9063" style="stroke:#000000;stroke-width:0.0;"/><text fill="#000000" font-family="sans-serif" font-size="20.3125" lengthAdjust="spacing" textLength="87.5" x="1656.4151" y="2474.7445">{ordered}</text><text fill="#000000" font-family="sans-serif" font-size="20.3125" lengthAdjust="spacing" textLength="12.5" x="2300" y="1107.4729">1</text><polygon fill="none" points="1433.5229,1072.7117,1440.8563,1081.2659,1451.573,1077.7868,1444.2397,1069.2325,1433.5229,1072.7117" style="stroke:#181818;stroke-width:1.5625;"/><polygon fill="#181818" points="2045.7268,2101.1821,2053.2929,2087.7818,2046.4739,2093.4054,2040.8502,2086.5864,2045.7268,2101.1821" style="stroke:#181818;stroke-width:1.5625;"/><path d="M1451.573,1077.7868 C1487.516,1087.8928 1506.6188,1091.9337 1542.1875,1098.4375 C1569.2247,1103.3813 1768.1957,1096.1733 1789.0625,1114.0625 C2079.4941,1363.0509 2068.4758,1864.3862 2046.6233,2091.8501 " fill="none" style="stroke:#181818;stroke-width:1.5625;"/><text fill="#000000" font-family="sans-serif" font-size="20.3125" lengthAdjust="spacing" textLength="90.625" x="2040.625" y="1652.4506">absences</text><text fill="#000000" font-family="sans-serif" font-size="20.3125" lengthAdjust="spacing" textLength="9.375" x="2034.7893" y="2095.8202">*</text><text fill="#000000" font-family="sans-serif" font-size="20.3125" lengthAdjust="spacing" textLength="12.5" x="1419.4604" y="1093.9123">1</text><polygon fill="#181818" points="1915.9872,907.6998,1931.3493,906.7934,1922.9271,904.1119,1925.6086,895.6896,1915.9872,907.6998" style="stroke:#181818;stroke-width:1.5625;"/><path d="M2791.6058,800.0413 C2773.9918,804.8099 2756.3991,809.0257 2739.0625,812.5 C2629.7241,834.4119 2347.661,810.8172 2237.5,828.125 C2195.3776,834.743 2187.2068,846.7525 2145.3125,854.6875 C2087.0596,865.721 2069.216,849.9122 2012.5,867.1875 C1979.9501,877.102 1955.1066,887.4749 1924.315,903.3943 " fill="none" style="stroke:#181818;stroke-width:1.5625;stroke-dasharray:7.0,7.0;"/><text fill="#000000" font-family="sans-serif" font-size="20.3125" lengthAdjust="spacing" textLength="67.1875" x="2239.0625" y="849.3256">&#171;uses&#187;</text><polygon fill="#181818" points="2529.1914,907.5963,2544.5728,908.0742,2536.4256,904.6466,2539.8533,896.4994,2529.1914,907.5963" style="stroke:#181818;stroke-width:1.5625;"/><path d="M2792.5819,800.2019 C2704.4621,836.1317 2619.077,870.9465 2537.8725,904.0566 " fill="none" style="stroke:#181818;stroke-width:1.5625;stroke-dasharray:7.0,7.0;"/><text fill="#000000" font-family="sans-serif" font-size="20.3125" lengthAdjust="spacing" textLength="67.1875" x="2709.375" y="849.3256">&#171;uses&#187;</text><polygon fill="#181818" points="1638.8179,907.7743,1629.2332,895.7348,1631.889,904.1652,1623.4586,906.821,1638.8179,907.7743" style="stroke:#181818;stroke-width:1.5625;"/><path d="M918.7663,787.506 C960.1359,797.2334 1001.8683,805.8729 1042.1875,812.5 C1166.4069,832.9173 1201.9307,801.6435 1325,828.125 C1357.0239,835.0158 1361.8287,847.336 1393.75,854.6875 C1458.2669,869.5458 1478.787,848.1197 1542.1875,867.1875 C1574.8276,877.0041 1599.7304,887.4144 1630.5032,903.4433 " fill="none" style="stroke:#181818;stroke-width:1.5625;stroke-dasharray:7.0,7.0;"/><text fill="#000000" font-family="sans-serif" font-size="20.3125" lengthAdjust="spacing" textLength="67.1875" x="1395.3125" y="849.3256">&#171;uses&#187;</text><polygon fill="#181818" points="2134.7934,907.6511,2124.1148,896.5703,2127.5547,904.7123,2119.4127,908.1522,2134.7934,907.6511" style="stroke:#181818;stroke-width:1.5625;"/><path d="M914.5121,787.5782 C957.2489,797.509 1000.4571,806.1735 1042.1875,812.5 C1155.5283,829.683 1443.4101,820.8113 1557.8125,828.125 C1678.9738,835.8708 1708.6951,844.6426 1829.6875,854.6875 C1910.848,861.4255 1933.299,848.2236 2012.5,867.1875 C2053.1605,876.9232 2086.6448,888.1036 2126.107,904.1245 " fill="none" style="stroke:#181818;stroke-width:1.5625;stroke-dasharray:7.0,7.0;"/><text fill="#000000" font-family="sans-serif" font-size="20.3125" lengthAdjust="spacing" textLength="67.1875" x="1831.25" y="849.3256">&#171;uses&#187;</text><polygon fill="#181818" points="1061.0535,920.8681,1051.0499,909.1743,1054.0016,917.5057,1045.6701,920.4574,1061.0535,920.8681" style="stroke:#181818;stroke-width:1.5625;"/><path d="M781.6526,787.6503 C874.3924,831.8684 969.6425,877.2835 1052.5912,916.8333 " fill="none" style="stroke:#181818;stroke-width:1.5625;stroke-dasharray:7.0,7.0;"/><text fill="#000000" font-family="sans-serif" font-size="20.3125" lengthAdjust="spacing" textLength="67.1875" x="923.4375" y="849.3256">&#171;uses&#187;</text><polygon fill="#181818" points="2602.8875,975.3921,2617.477,980.2875,2610.6652,974.655,2616.2976,967.8432,2602.8875,975.3921" style="stroke:#181818;stroke-width:1.5625;"/><path d="M3583.2387,761.9482 C3545.8741,781.0762 3505.1226,799.4674 3465.625,812.5 C3180.6389,906.5336 2848.8714,952.0804 2612.2207,974.5076 " fill="none" style="stroke:#181818;stroke-width:1.5625;stroke-dasharray:7.0,7.0;"/><text fill="#000000" font-family="sans-serif" font-size="20.3125" lengthAdjust="spacing" textLength="67.1875" x="3406.25" y="849.3256">&#171;uses&#187;</text><polygon fill="#181818" points="1847.8686,907.7718,1862.0129,901.7092,1853.1804,902.0429,1852.8467,893.2104,1847.8686,907.7718" style="stroke:#181818;stroke-width:1.5625;"/><path d="M2031.7444,774.2868 C1998.8904,790.3422 1966.7199,808.2964 1937.5,828.125 C1904.9962,850.1821 1880.2806,872.8144 1854.2427,900.8971 " fill="none" style="stroke:#181818;stroke-width:1.5625;stroke-dasharray:7.0,7.0;"/><text fill="#000000" font-family="sans-serif" font-size="20.3125" lengthAdjust="spacing" textLength="67.1875" x="1939.0625" y="849.3256">&#171;uses&#187;</text><polygon fill="#181818" points="2314.0625,907.7247,2320.3125,893.6622,2314.0625,899.9122,2307.8125,893.6622,2314.0625,907.7247" style="stroke:#181818;stroke-width:1.5625;"/><path d="M2314.0625,774.494 C2314.0625,817.1841 2314.0625,857.1503 2314.0625,898.3497 " fill="none" style="stroke:#181818;stroke-width:1.5625;stroke-dasharray:7.0,7.0;"/><text fill="#000000" font-family="sans-serif" font-size="20.3125" lengthAdjust="spacing" textLength="67.1875" x="2315.625" y="849.3256">&#171;uses&#187;</text><polygon fill="#181818" points="1222.3541,920.8993,1230.7583,908.008,1223.595,913.186,1218.417,906.0226,1222.3541,920.8993" style="stroke:#181818;stroke-width:1.5625;"/><path d="M1316.1029,761.8096 C1292.7347,781.0986 1270.9737,803.297 1254.6875,828.125 C1236.7402,855.4854 1228.7817,880.945 1223.8431,911.6433 " fill="none" style="stroke:#181818;stroke-width:1.5625;stroke-dasharray:7.0,7.0;"/><text fill="#000000" font-family="sans-serif" font-size="20.3125" lengthAdjust="spacing" textLength="67.1875" x="1256.25" y="849.3256">&#171;uses&#187;</text><polygon fill="#181818" points="2178.6777,907.4528,2169.604,895.0236,2171.9055,903.5575,2163.3716,905.8591,2178.6777,907.4528" style="stroke:#181818;stroke-width:1.5625;"/><path d="M1709.0253,761.8119 C1767.8992,780.6556 1831.0418,798.9533 1890.625,812.5 C1941.8617,824.1491 1957.872,811.7896 2007.8125,828.125 C2066.5375,847.3338 2118.9574,873.1027 2170.5511,902.7785 " fill="none" style="stroke:#181818;stroke-width:1.5625;stroke-dasharray:7.0,7.0;"/><text fill="#000000" font-family="sans-serif" font-size="20.3125" lengthAdjust="spacing" textLength="67.1875" x="2070.3125" y="849.3256">&#171;uses&#187;</text><polygon fill="#181818" points="1630.7162,907.597,1621.1326,895.5566,1623.7876,903.9873,1615.357,906.6423,1630.7162,907.597" style="stroke:#181818;stroke-width:1.5625;"/><path d="M1456.2903,761.8884 C1457.5076,794.6203 1465.1068,829.8332 1487.5,854.6875 C1504.1889,873.2106 1518.8753,858.3463 1542.1875,867.1875 C1571.6721,878.3697 1593.7154,888.3197 1622.4019,903.2653 " fill="none" style="stroke:#181818;stroke-width:1.5625;stroke-dasharray:7.0,7.0;"/><text fill="#000000" font-family="sans-serif" font-size="20.3125" lengthAdjust="spacing" textLength="67.1875" x="1489.0625" y="849.3256">&#171;uses&#187;</text><polygon fill="#181818" points="2314.0625,337.3952,2320.3125,323.3327,2314.0625,329.5827,2307.8125,323.3327,2314.0625,337.3952" style="stroke:#181818;stroke-width:1.5625;"/><path d="M2314.0625,255.0875 C2314.0625,281.7504 2314.0625,303.066 2314.0625,328.0202 " fill="none" style="stroke:#181818;stroke-width:1.5625;stroke-dasharray:7.0,7.0;"/><text fill="#000000" font-family="sans-serif" font-size="20.3125" lengthAdjust="spacing" textLength="92.1875" x="2315.625" y="304.0131">&#171;creates&#187;</text><polygon fill="#181818" points="2840.8551,545.2502,2830.3936,533.9643,2833.6748,542.1715,2825.4676,545.4528,2840.8551,545.2502" style="stroke:#181818;stroke-width:1.5625;"/><path d="M2444.5821,418.6593 C2529.5564,439.3677 2642.2,469.5501 2739.0625,504.6875 C2772.4249,516.7899 2798.3414,527.0214 2832.2388,541.5558 " fill="none" style="stroke:#181818;stroke-width:1.5625;stroke-dasharray:7.0,7.0;"/><text fill="#000000" font-family="sans-serif" font-size="20.3125" lengthAdjust="spacing" textLength="67.1875" x="2695.3125" y="486.8256">&#171;uses&#187;</text><polygon fill="#181818" points="846.446,557.6388,861.744,559.3084,853.8873,555.2591,857.9365,547.4024,846.446,557.6388" style="stroke:#181818;stroke-width:1.5625;"/><path d="M2183.5105,391.0033 C1951.4433,396.6452 1452.8871,418.6772 1042.1875,504.6875 C977.897,518.1515 919.2722,534.3493 855.3755,554.7832 " fill="none" style="stroke:#181818;stroke-width:1.5625;stroke-dasharray:7.0,7.0;"/><text fill="#000000" font-family="sans-serif" font-size="20.3125" lengthAdjust="spacing" textLength="67.1875" x="1248.4375" y="486.8256">&#171;uses&#187;</text><polygon fill="#181818" points="3616.8462,583.2796,3608.6248,570.271,3610.35,578.9398,3601.6811,580.665,3616.8462,583.2796" style="stroke:#181818;stroke-width:1.5625;"/><path d="M2444.9766,394.7 C2705.4775,407.1422 3279.6869,441.0273 3465.625,504.6875 C3518.6532,522.8429 3564.2142,548.1191 3609.0507,578.0719 " fill="none" style="stroke:#181818;stroke-width:1.5625;stroke-dasharray:7.0,7.0;"/><text fill="#000000" font-family="sans-serif" font-size="20.3125" lengthAdjust="spacing" textLength="67.1875" x="3415.625" y="486.8256">&#171;uses&#187;</text><polygon fill="#181818" points="2314.0625,570.7294,2320.3125,556.6669,2314.0625,562.9169,2307.8125,556.6669,2314.0625,570.7294" style="stroke:#181818;stroke-width:1.5625;"/><path d="M2314.0625,437.5454 C2314.0625,474.084 2314.0625,516.0872 2314.0625,561.3544 " fill="none" style="stroke:#181818;stroke-width:1.5625;stroke-dasharray:7.0,7.0;"/><text fill="#000000" font-family="sans-serif" font-size="20.3125" lengthAdjust="spacing" textLength="67.1875" x="2315.625" y="486.8256">&#171;uses&#187;</text><polygon fill="#181818" points="1676.4009,583.4425,1691.7764,584.083,1683.6659,580.5694,1687.1795,572.459,1676.4009,583.4425" style="stroke:#181818;stroke-width:1.5625;"/><path d="M2183.2643,420.9352 C2099.0321,442.4028 1987.5596,472.5773 1890.625,504.6875 C1820.1068,528.0471 1752.9587,553.1668 1685.1189,579.9948 " fill="none" style="stroke:#181818;stroke-width:1.5625;stroke-dasharray:7.0,7.0;"/><text fill="#000000" font-family="sans-serif" font-size="20.3125" lengthAdjust="spacing" textLength="67.1875" x="2018.75" y="486.8256">&#171;uses&#187;</text><!--SRC=[vHdjRjisyB-VWlD-r0uS8sbNR3C20quieqRJEB3T5CKs3BJ5AbnaKX3fP5uHO0-n9zoJZ9GeYQGeoLwm_J4HH19vTxmxtYVzJHJ3O0D127Tqom7R80u9RB47J28OmmrOXv2n4USnNcqvcgufMU0_43YpGIQKy6Jb_BMs5C7r0mnGiVX6MsJtqATFc0JW2mmPqbRy28FpjsUjrYlmzrz_7iEVa1ICPnz6qviZahcbp0EqrtJJZq9828hxFjr0JDhWsybaClQ-1rzRBI16OcLWZ1vHI2CKYscW1YQOOs51O00Mmav9aAmywsYtCVqDhRcEv9lWSX2uGULPnc7CFo7q89OmuURyPmHZQzv7q0ynGGwKRCc1TNfQ44Py8Mbtdd8AFR3BKRewu5XHR8IzXombsXKhAqf318c-c1DohKFV7wqvViHyru7gHO1bSyKk0U9Boc5ukVN5A_BVqMtC4f8-tQv2L0ASem0pZk8AKECGi-sqKtIVs4hVlRpteGUAYE-05hEDnsYguTvWfwjhDpVhZfyR-A0mTWDsYJSeLLiCEQQa4wD00DlJtHVfsgQcwTo7NEhycgvXE1RlXHMvrMsgf5uLqg85oOwzHzTX3Ik6o1ffZF5T996Mul5_dpLcYN6YAP7OLSveUPOI1v7j1hILE8E1PByDO2wW_DQ4l1jTZPRJsKq-iPXUlV_rsXlTUVdKrUpZV55ypfRllBc-uoimJcAis8NHDKuEc2KhMPnKettUbe-JqzEX-3W1NsdiI_jv5jEvDsPZ05Hem8Y1ePFSMRz_qfQA6wOVAVba584z9nUbsDSYCedfbAArQns39HCU06vDiGggDfydjNmABUA0eCA9Cx8b3XGjIRUjoUucMqG2nQGoU2UJBwLMsFJGdZ8CKL6JhjPwFhBwRExTpXRJvMp- -UXhj1X5b65EuvseqxmV9c-z7yqwJNd-F8VJGbY010aHr1NCr4yoaPN3HQBhg00W5XLeaIY-OE9VxWIgLiT9AhD8EXeCBnJ6qC0OXM6orxLmIHFYsLbaEjcNd3LaQSMTgaixfGBLu3J7h-7L0OD-5miLj1rPnaYQbN915HK66QGjKrEXaZ6iq6j4CY3onAHnniH_aKdITW3GbJmi8qjfi2e2KbSUA99GdbAo0Eqww6f2OqrYtuxrPSrQFBKT8JLD7-cx97Hi4NNXpU-cLzxHXrE6uaUyHZAMlfcydeoTiNIH0caUkuvH4KOxHY_KBOActWTai5RKT40ANrMph29a6grgbCNod6uF7DA-_XlyGXxn24IiO0uoZjuphTTkzUhIkN_kuzDIZArkJgjEAU-VNJjbFVMDVOGPbgwpR6wCECGXsvzW3_nCgjlZdjqhzUmcgMTsHpspBNBtiqjwkE3Dciziz54e00hUYygxflMgIgH1eT8N78wxW2XRGo2DFikXpkITBrlkg0bP9qwkEs_F0a6EM5qD7CHQxOL1MV9i3mdPgJxX7d0TGcgvLUPYtHRqhAk8hkDwfAYZVCnBLoh_CNi4FRshk059Bcjyk4llIUhuADsHr5sTfJL6zQ4eWDeDrVsA0ktBVZ2J_8MXew2gtQZanfOiyLhMzhjmoNn95LmJ6ZlAsQdBy6igraodFeg4K0o8DZ_lZZ0o2jOCD1_z_j1TpGx0nSMM8JOSDkExYbWDtxZWi2dioq0jVWC3ZVYkqjaMe1HH3zL0LNpQLmEr-7iTWUc21wcW4N-V8wZ3Rr30iVKb7wT7tv9iiVm5xihxphiokv5H56dv8udp7V4_I3EUU1QvJ3Rk7HW7HIpzwHT7wVn1W7t2nATFPfqqfpJzkUeoQS9l8J4ocsGajLwDW3wa0QV5T-w4EgHk-2Mli9odX5SLq9hmgk9O4rvL-6daiyBh3UV-1m00]--></g></svg>